# xmcd
#
# Track frame offsets: 
#        183
#        19425
#        38530
#        55658
#        72523
#        97525
#        118595
#        134908
#        157020
#        177510
#        203485
#        220770
#        236265
#        257208
#        274288
#        288263
#
# Disc length: 4039 seconds
#
# Revision: 1
# Processed by: cddbd v1.5.2PL0 Copyright (c) Steve Scherf et al.
# Submitted via: ExactAudioCopy v1.0b3
#
DISCID=e90fc510
DTITLE=Romantic Warrior - Planet
DYEAR=1988
DGENRE=Electronic
TTITLE0=Nisan Fatima
TTITLE1=West Coast
TTITLE2=Autumn
TTITLE3=Savanna Talk
TTITLE4=Munchys
TTITLE5=Odeon
TTITLE6=Planet
TTITLE7=Footprints
TTITLE8=Liquid Sky
TTITLE9=Modern Talking (it's just a telephone call)
TTITLE10=Spys of Love
TTITLE11=Cosmo Jazz
TTITLE12=Reflexion Au Jour
TTITLE13=Space Shuttle
TTITLE14=Gladiator
TTITLE15=Volcanic
EXTD=
EXTT0=
EXTT1=
EXTT2=
EXTT3=
EXTT4=
EXTT5=
EXTT6=
EXTT7=
EXTT8=
EXTT9=
EXTT10=
EXTT11=
EXTT12=
EXTT13=
EXTT14=
EXTT15=
PLAYORDER=
